<svg width="138" height="39" viewBox="0 0 138 39" fill="none" xmlns="http://www.w3.org/2000/svg">
<path d="M11.2935 0.303007L11.4538 0.24955C11.6774 0.175034 11.919 0.295848 11.9935 0.519397L13.0729 3.75757C13.1474 3.98112 13.0266 4.22275 12.8031 4.29726L12.6427 4.35072C10.0293 5.22185 8.26655 7.66753 8.26655 10.4223V34.1734C8.26655 34.409 8.07553 34.6001 7.83989 34.6001H4.42656C4.19091 34.6001 3.99989 34.409 3.99989 34.1734V17.5334L0.871001 17.5334C0.63536 17.5334 0.444336 17.3424 0.444336 17.1067V13.6934C0.444336 13.4578 0.635362 13.2667 0.871004 13.2667L3.99989 13.2667V10.4223C3.99989 5.83103 6.93781 1.75489 11.2935 0.303007Z" fill="#2E376B"/>
<path d="M16.3732 9.00006C16.6089 9.00006 16.7999 9.19109 16.7999 9.42673V34.1734C16.7999 34.409 16.6089 34.6001 16.3732 34.6001H12.9599C12.7243 34.6001 12.5332 34.409 12.5332 34.1734V9.42673C12.5332 9.19109 12.7243 9.00006 12.9599 9.00006H16.3732Z" fill="#2E376B"/>
<path fill-rule="evenodd" clip-rule="evenodd" d="M27.4666 17.5334C22.7537 17.5334 18.9332 21.3539 18.9332 26.0667C18.9332 30.7796 22.7537 34.6001 27.4666 34.6001C32.1794 34.6001 35.9999 30.7796 35.9999 26.0667C35.9999 21.3539 32.1794 17.5334 27.4666 17.5334ZM23.1999 26.0667C23.1999 23.7103 25.1102 21.8001 27.4666 21.8001C29.823 21.8001 31.7332 23.7103 31.7332 26.0667C31.7332 28.4232 29.823 30.3334 27.4666 30.3334C25.1102 30.3334 23.1999 28.4232 23.1999 26.0667Z" fill="#2E376B"/>
<path fill-rule="evenodd" clip-rule="evenodd" d="M133.422 9.42673V18.675C132.167 17.9489 130.71 17.5334 129.155 17.5334C124.443 17.5334 120.622 21.3539 120.622 26.0667C120.622 30.7796 124.443 34.6001 129.155 34.6001C133.868 34.6001 137.689 30.7796 137.689 26.0667V9.42673C137.689 9.19109 137.498 9.00006 137.262 9.00006H133.849C133.613 9.00006 133.422 9.19109 133.422 9.42673ZM124.889 26.0667C124.889 28.4231 126.799 30.3334 129.155 30.3334C131.512 30.3334 133.422 28.4231 133.422 26.0667C133.422 23.7103 131.512 21.8001 129.155 21.8001C126.799 21.8001 124.889 23.7103 124.889 26.0667Z" fill="#2E376B"/>
<path d="M73.6888 21.3734C73.6888 21.609 73.4978 21.8001 73.2621 21.8001H67.6444C67.0552 21.8001 66.5777 22.2776 66.5777 22.8667C66.5777 23.4558 67.0552 23.9334 67.6444 23.9334H71.2313C74.1769 23.9334 76.5647 26.3212 76.5647 29.2667C76.5647 32.2123 74.1769 34.6001 71.2313 34.6001H62.0266C61.7909 34.6001 61.5999 34.409 61.5999 34.1734V30.7601C61.5999 30.5244 61.7909 30.3334 62.0266 30.3334H71.2313C71.8205 30.3334 72.298 29.8558 72.298 29.2667C72.298 28.6776 71.8205 28.2001 71.2313 28.2001H67.6444C64.6988 28.2001 62.311 25.8123 62.311 22.8667C62.311 19.9212 64.6988 17.5334 67.6444 17.5334H73.2621C73.4978 17.5334 73.6888 17.7244 73.6888 17.9601V21.3734Z" fill="#2E376B"/>
<path fill-rule="evenodd" clip-rule="evenodd" d="M83.9917 17.9213C79.4924 19.3237 76.9818 24.108 78.3842 28.6073C79.5801 32.4441 83.2351 34.8346 87.0756 34.586C89.4522 39.0129 95.7905 40.0362 99.3786 35.9545L99.6741 35.6183C99.8297 35.4413 99.8123 35.1717 99.6354 35.0161L97.0717 32.7626C96.8948 32.607 96.6252 32.6243 96.4696 32.8013L96.174 33.1375C94.8015 34.6989 92.5028 34.5412 91.2677 33.1687C94.3376 31.1227 95.8312 27.2294 94.6777 23.5288C93.2753 19.0295 88.491 16.5189 83.9917 17.9213ZM82.4576 27.3377C81.7564 25.088 83.0117 22.6959 85.2613 21.9947C87.511 21.2935 89.9032 22.5488 90.6043 24.7984C91.3055 27.0481 90.0503 29.4402 87.8006 30.1414C85.5509 30.8426 83.1588 29.5874 82.4576 27.3377Z" fill="#2E376B"/>
<path d="M38.1332 28.2001V17.9601C38.1332 17.7244 38.3243 17.5334 38.5599 17.5334H41.9732C42.2089 17.5334 42.3999 17.7244 42.3999 17.9601V28.2001C42.3999 29.3783 43.355 30.3334 44.5332 30.3334C45.7114 30.3334 46.6666 29.3783 46.6666 28.2001V26.4934L46.6666 26.4903V24.3601C46.6666 24.1244 46.8576 23.9334 47.0932 23.9334H50.5066C50.7422 23.9334 50.9332 24.1244 50.9332 24.3601V28.2001C50.9332 29.3783 51.8884 30.3334 53.0666 30.3334C54.2448 30.3334 55.1999 29.3783 55.1999 28.2001V17.9601C55.1999 17.7244 55.3909 17.5334 55.6266 17.5334H59.0399C59.2756 17.5334 59.4666 17.7244 59.4666 17.9601V28.2001C59.4666 31.7347 56.6012 34.6001 53.0666 34.6001C51.4274 34.6001 49.9322 33.9838 48.7999 32.9704C47.6676 33.9838 46.1724 34.6001 44.5332 34.6001C40.9986 34.6001 38.1332 31.7347 38.1332 28.2001Z" fill="#2E376B"/>
<path d="M97.8666 17.9601V28.2001C97.8666 31.7347 100.732 34.6001 104.267 34.6001C107.801 34.6001 110.667 31.7347 110.667 28.2001V17.9601C110.667 17.7244 110.476 17.5334 110.24 17.5334H106.827C106.591 17.5334 106.4 17.7244 106.4 17.9601V28.2001C106.4 29.3783 105.445 30.3334 104.267 30.3334C103.088 30.3334 102.133 29.3783 102.133 28.2001V17.9601C102.133 17.7244 101.942 17.5334 101.707 17.5334H98.2932C98.0576 17.5334 97.8666 17.7244 97.8666 17.9601Z" fill="#2E376B"/>
<path d="M113.776 34.1734C113.776 34.409 113.967 34.6001 114.202 34.6001H117.616C117.851 34.6001 118.042 34.409 118.042 34.1734V17.9601C118.042 17.7244 117.851 17.5334 117.616 17.5334H114.202C113.967 17.5334 113.776 17.7244 113.776 17.9601V34.1734Z" fill="#2E376B"/>
</svg>
