<svg width="210" height="59" viewBox="0 0 210 59" fill="none" xmlns="http://www.w3.org/2000/svg">
<path d="M17.0988 0.431493L17.3429 0.350145C17.6831 0.236751 18.0508 0.420598 18.1642 0.760781L19.8067 5.68842C19.9201 6.0286 19.7363 6.3963 19.3961 6.50969L19.152 6.59104C15.1751 7.91667 12.4927 11.6384 12.4927 15.8304V51.9733C12.4927 52.3319 12.202 52.6226 11.8434 52.6226H6.64924C6.29066 52.6226 5.99997 52.3319 5.99997 51.9733V26.6516L1.23863 26.6516C0.880044 26.6516 0.589355 26.3609 0.589355 26.0023V20.8081C0.589355 20.4496 0.880046 20.1589 1.23863 20.1589L5.99997 20.1589V15.8304C5.99997 8.84369 10.4707 2.64087 17.0988 0.431493Z" fill="#DC5F64"/>
<path d="M17.0988 0.431493L17.3429 0.350145C17.6831 0.236751 18.0508 0.420598 18.1642 0.760781L19.8067 5.68842C19.9201 6.0286 19.7363 6.3963 19.3961 6.50969L19.152 6.59104C15.1751 7.91667 12.4927 11.6384 12.4927 15.8304V51.9733C12.4927 52.3319 12.202 52.6226 11.8434 52.6226H6.64924C6.29066 52.6226 5.99997 52.3319 5.99997 51.9733V26.6516L1.23863 26.6516C0.880044 26.6516 0.589355 26.3609 0.589355 26.0023V20.8081C0.589355 20.4496 0.880046 20.1589 1.23863 20.1589L5.99997 20.1589V15.8304C5.99997 8.84369 10.4707 2.64087 17.0988 0.431493Z" fill="url(#paint0_linear_231_109)"/>
<path d="M24.8289 13.6661C25.1875 13.6661 25.4782 13.9568 25.4782 14.3154V51.9733C25.4782 52.3319 25.1875 52.6226 24.8289 52.6226H19.6348C19.2762 52.6226 18.9855 52.3319 18.9855 51.9733V14.3154C18.9855 13.9568 19.2762 13.6661 19.6348 13.6661H24.8289Z" fill="#DC5F64"/>
<path d="M24.8289 13.6661C25.1875 13.6661 25.4782 13.9568 25.4782 14.3154V51.9733C25.4782 52.3319 25.1875 52.6226 24.8289 52.6226H19.6348C19.2762 52.6226 18.9855 52.3319 18.9855 51.9733V14.3154C18.9855 13.9568 19.2762 13.6661 19.6348 13.6661H24.8289Z" fill="url(#paint1_linear_231_109)"/>
<path fill-rule="evenodd" clip-rule="evenodd" d="M41.7101 26.6516C34.5384 26.6516 28.7246 32.4654 28.7246 39.6371C28.7246 46.8088 34.5384 52.6226 41.7101 52.6226C48.8818 52.6226 54.6956 46.8088 54.6956 39.6371C54.6956 32.4654 48.8818 26.6516 41.7101 26.6516ZM35.2173 39.6371C35.2173 36.0512 38.1242 33.1443 41.7101 33.1443C45.2959 33.1443 48.2028 36.0512 48.2028 39.6371C48.2028 43.2229 45.2959 46.1298 41.7101 46.1298C38.1242 46.1298 35.2173 43.2229 35.2173 39.6371Z" fill="#DC5F64"/>
<path fill-rule="evenodd" clip-rule="evenodd" d="M41.7101 26.6516C34.5384 26.6516 28.7246 32.4654 28.7246 39.6371C28.7246 46.8088 34.5384 52.6226 41.7101 52.6226C48.8818 52.6226 54.6956 46.8088 54.6956 39.6371C54.6956 32.4654 48.8818 26.6516 41.7101 26.6516ZM35.2173 39.6371C35.2173 36.0512 38.1242 33.1443 41.7101 33.1443C45.2959 33.1443 48.2028 36.0512 48.2028 39.6371C48.2028 43.2229 45.2959 46.1298 41.7101 46.1298C38.1242 46.1298 35.2173 43.2229 35.2173 39.6371Z" fill="url(#paint2_linear_231_109)"/>
<path fill-rule="evenodd" clip-rule="evenodd" d="M202.946 14.3154V28.3888C201.036 27.284 198.819 26.6516 196.454 26.6516C189.282 26.6516 183.468 32.4654 183.468 39.6371C183.468 46.8088 189.282 52.6226 196.454 52.6226C203.625 52.6226 209.439 46.8088 209.439 39.6371V14.3154C209.439 13.9568 209.148 13.6661 208.79 13.6661H203.596C203.237 13.6661 202.946 13.9568 202.946 14.3154ZM189.961 39.6371C189.961 43.2229 192.868 46.1298 196.454 46.1298C200.04 46.1298 202.946 43.2229 202.946 39.6371C202.946 36.0512 200.04 33.1443 196.454 33.1443C192.868 33.1443 189.961 36.0512 189.961 39.6371Z" fill="#DC5F64"/>
<path fill-rule="evenodd" clip-rule="evenodd" d="M202.946 14.3154V28.3888C201.036 27.284 198.819 26.6516 196.454 26.6516C189.282 26.6516 183.468 32.4654 183.468 39.6371C183.468 46.8088 189.282 52.6226 196.454 52.6226C203.625 52.6226 209.439 46.8088 209.439 39.6371V14.3154C209.439 13.9568 209.148 13.6661 208.79 13.6661H203.596C203.237 13.6661 202.946 13.9568 202.946 14.3154ZM189.961 39.6371C189.961 43.2229 192.868 46.1298 196.454 46.1298C200.04 46.1298 202.946 43.2229 202.946 39.6371C202.946 36.0512 200.04 33.1443 196.454 33.1443C192.868 33.1443 189.961 36.0512 189.961 39.6371Z" fill="url(#paint3_linear_231_109)"/>
<path d="M112.048 32.4951C112.048 32.8537 111.757 33.1443 111.399 33.1443H102.85C101.954 33.1443 101.227 33.8711 101.227 34.7675C101.227 35.664 101.954 36.3907 102.85 36.3907H108.309C112.791 36.3907 116.424 40.0243 116.424 44.5066C116.424 48.989 112.791 52.6226 108.309 52.6226H94.3013C93.9427 52.6226 93.652 52.3319 93.652 51.9733V46.7791C93.652 46.4205 93.9427 46.1298 94.3013 46.1298H108.309C109.205 46.1298 109.932 45.4031 109.932 44.5066C109.932 43.6102 109.205 42.8835 108.309 42.8835H102.85C98.3677 42.8835 94.7341 39.2498 94.7341 34.7675C94.7341 30.2852 98.3677 26.6516 102.85 26.6516H111.399C111.757 26.6516 112.048 26.9423 112.048 27.3009V32.4951Z" fill="#DC5F64"/>
<path d="M112.048 32.4951C112.048 32.8537 111.757 33.1443 111.399 33.1443H102.85C101.954 33.1443 101.227 33.8711 101.227 34.7675C101.227 35.664 101.954 36.3907 102.85 36.3907H108.309C112.791 36.3907 116.424 40.0243 116.424 44.5066C116.424 48.989 112.791 52.6226 108.309 52.6226H94.3013C93.9427 52.6226 93.652 52.3319 93.652 51.9733V46.7791C93.652 46.4205 93.9427 46.1298 94.3013 46.1298H108.309C109.205 46.1298 109.932 45.4031 109.932 44.5066C109.932 43.6102 109.205 42.8835 108.309 42.8835H102.85C98.3677 42.8835 94.7341 39.2498 94.7341 34.7675C94.7341 30.2852 98.3677 26.6516 102.85 26.6516H111.399C111.757 26.6516 112.048 26.9423 112.048 27.3009V32.4951Z" fill="url(#paint4_linear_231_109)"/>
<path fill-rule="evenodd" clip-rule="evenodd" d="M127.726 27.2419C120.88 29.3759 117.059 36.6564 119.193 43.5032C121.013 49.3417 126.575 52.9795 132.419 52.6011C136.036 59.3377 145.681 60.895 151.141 54.6836L151.591 54.172C151.828 53.9027 151.801 53.4924 151.532 53.2557L147.631 49.8263C147.361 49.5896 146.951 49.616 146.714 49.8853L146.265 50.397C144.176 52.773 140.678 52.5329 138.799 50.4444C143.47 47.3309 145.743 41.4063 143.988 35.775C141.854 28.9282 134.573 25.1078 127.726 27.2419ZM125.392 41.5711C124.325 38.1477 126.235 34.5075 129.658 33.4405C133.082 32.3734 136.722 34.2836 137.789 37.7071C138.856 41.1305 136.946 44.7707 133.523 45.8377C130.099 46.9048 126.459 44.9945 125.392 41.5711Z" fill="#DC5F64"/>
<path fill-rule="evenodd" clip-rule="evenodd" d="M127.726 27.2419C120.88 29.3759 117.059 36.6564 119.193 43.5032C121.013 49.3417 126.575 52.9795 132.419 52.6011C136.036 59.3377 145.681 60.895 151.141 54.6836L151.591 54.172C151.828 53.9027 151.801 53.4924 151.532 53.2557L147.631 49.8263C147.361 49.5896 146.951 49.616 146.714 49.8853L146.265 50.397C144.176 52.773 140.678 52.5329 138.799 50.4444C143.47 47.3309 145.743 41.4063 143.988 35.775C141.854 28.9282 134.573 25.1078 127.726 27.2419ZM125.392 41.5711C124.325 38.1477 126.235 34.5075 129.658 33.4405C133.082 32.3734 136.722 34.2836 137.789 37.7071C138.856 41.1305 136.946 44.7707 133.523 45.8377C130.099 46.9048 126.459 44.9945 125.392 41.5711Z" fill="url(#paint5_linear_231_109)"/>
<path d="M57.9419 42.8835V27.3009C57.9419 26.9423 58.2326 26.6516 58.5912 26.6516H63.7854C64.144 26.6516 64.4347 26.9423 64.4347 27.3009V42.8835C64.4347 44.6764 65.8881 46.1298 67.681 46.1298C69.4739 46.1298 70.9274 44.6764 70.9274 42.8835V40.2864L70.9274 40.2817V37.04C70.9274 36.6814 71.2181 36.3907 71.5767 36.3907H76.7709C77.1295 36.3907 77.4201 36.6814 77.4201 37.04V42.8835C77.4201 44.6764 78.8736 46.1298 80.6665 46.1298C82.4594 46.1298 83.9129 44.6764 83.9129 42.8835V27.3009C83.9129 26.9423 84.2036 26.6516 84.5622 26.6516H89.7564C90.1149 26.6516 90.4056 26.9423 90.4056 27.3009V42.8835C90.4056 48.2622 86.0453 52.6226 80.6665 52.6226C78.1722 52.6226 75.8968 51.6848 74.1738 50.1427C72.4507 51.6848 70.1754 52.6226 67.681 52.6226C62.3023 52.6226 57.9419 48.2622 57.9419 42.8835Z" fill="#DC5F64"/>
<path d="M57.9419 42.8835V27.3009C57.9419 26.9423 58.2326 26.6516 58.5912 26.6516H63.7854C64.144 26.6516 64.4347 26.9423 64.4347 27.3009V42.8835C64.4347 44.6764 65.8881 46.1298 67.681 46.1298C69.4739 46.1298 70.9274 44.6764 70.9274 42.8835V40.2864L70.9274 40.2817V37.04C70.9274 36.6814 71.2181 36.3907 71.5767 36.3907H76.7709C77.1295 36.3907 77.4201 36.6814 77.4201 37.04V42.8835C77.4201 44.6764 78.8736 46.1298 80.6665 46.1298C82.4594 46.1298 83.9129 44.6764 83.9129 42.8835V27.3009C83.9129 26.9423 84.2036 26.6516 84.5622 26.6516H89.7564C90.1149 26.6516 90.4056 26.9423 90.4056 27.3009V42.8835C90.4056 48.2622 86.0453 52.6226 80.6665 52.6226C78.1722 52.6226 75.8968 51.6848 74.1738 50.1427C72.4507 51.6848 70.1754 52.6226 67.681 52.6226C62.3023 52.6226 57.9419 48.2622 57.9419 42.8835Z" fill="url(#paint6_linear_231_109)"/>
<path d="M148.84 27.3009V42.8835C148.84 48.2622 153.201 52.6226 158.579 52.6226C163.958 52.6226 168.318 48.2622 168.318 42.8835V27.3009C168.318 26.9423 168.028 26.6516 167.669 26.6516H162.475C162.116 26.6516 161.826 26.9423 161.826 27.3009V42.8835C161.826 44.6764 160.372 46.1298 158.579 46.1298C156.786 46.1298 155.333 44.6764 155.333 42.8835V27.3009C155.333 26.9423 155.042 26.6516 154.684 26.6516H149.49C149.131 26.6516 148.84 26.9423 148.84 27.3009Z" fill="#DC5F64"/>
<path d="M148.84 27.3009V42.8835C148.84 48.2622 153.201 52.6226 158.579 52.6226C163.958 52.6226 168.318 48.2622 168.318 42.8835V27.3009C168.318 26.9423 168.028 26.6516 167.669 26.6516H162.475C162.116 26.6516 161.826 26.9423 161.826 27.3009V42.8835C161.826 44.6764 160.372 46.1298 158.579 46.1298C156.786 46.1298 155.333 44.6764 155.333 42.8835V27.3009C155.333 26.9423 155.042 26.6516 154.684 26.6516H149.49C149.131 26.6516 148.84 26.9423 148.84 27.3009Z" fill="url(#paint7_linear_231_109)"/>
<path d="M173.05 51.9733C173.05 52.3319 173.34 52.6226 173.699 52.6226H178.893C179.252 52.6226 179.542 52.3319 179.542 51.9733V27.3009C179.542 26.9423 179.252 26.6516 178.893 26.6516H173.699C173.34 26.6516 173.05 26.9423 173.05 27.3009V51.9733Z" fill="#DC5F64"/>
<path d="M173.05 51.9733C173.05 52.3319 173.34 52.6226 173.699 52.6226H178.893C179.252 52.6226 179.542 52.3319 179.542 51.9733V27.3009C179.542 26.9423 179.252 26.6516 178.893 26.6516H173.699C173.34 26.6516 173.05 26.9423 173.05 27.3009V51.9733Z" fill="url(#paint8_linear_231_109)"/>
<defs>
<linearGradient id="paint0_linear_231_109" x1="28" y1="-14" x2="56.4357" y2="57.9012" gradientUnits="userSpaceOnUse">
<stop stop-color="#2D3560"/>
<stop offset="1" stop-color="#BF4459"/>
</linearGradient>
<linearGradient id="paint1_linear_231_109" x1="28" y1="-14" x2="56.4357" y2="57.9012" gradientUnits="userSpaceOnUse">
<stop stop-color="#2D3560"/>
<stop offset="1" stop-color="#BF4459"/>
</linearGradient>
<linearGradient id="paint2_linear_231_109" x1="28" y1="-14" x2="56.4357" y2="57.9012" gradientUnits="userSpaceOnUse">
<stop stop-color="#2D3560"/>
<stop offset="1" stop-color="#BF4459"/>
</linearGradient>
<linearGradient id="paint3_linear_231_109" x1="28" y1="-14" x2="56.4357" y2="57.9012" gradientUnits="userSpaceOnUse">
<stop stop-color="#2D3560"/>
<stop offset="1" stop-color="#BF4459"/>
</linearGradient>
<linearGradient id="paint4_linear_231_109" x1="28" y1="-14" x2="56.4357" y2="57.9012" gradientUnits="userSpaceOnUse">
<stop stop-color="#2D3560"/>
<stop offset="1" stop-color="#BF4459"/>
</linearGradient>
<linearGradient id="paint5_linear_231_109" x1="28" y1="-14" x2="56.4357" y2="57.9012" gradientUnits="userSpaceOnUse">
<stop stop-color="#2D3560"/>
<stop offset="1" stop-color="#BF4459"/>
</linearGradient>
<linearGradient id="paint6_linear_231_109" x1="28" y1="-14" x2="56.4357" y2="57.9012" gradientUnits="userSpaceOnUse">
<stop stop-color="#2D3560"/>
<stop offset="1" stop-color="#BF4459"/>
</linearGradient>
<linearGradient id="paint7_linear_231_109" x1="28" y1="-14" x2="56.4357" y2="57.9012" gradientUnits="userSpaceOnUse">
<stop stop-color="#2D3560"/>
<stop offset="1" stop-color="#BF4459"/>
</linearGradient>
<linearGradient id="paint8_linear_231_109" x1="28" y1="-14" x2="56.4357" y2="57.9012" gradientUnits="userSpaceOnUse">
<stop stop-color="#2D3560"/>
<stop offset="1" stop-color="#BF4459"/>
</linearGradient>
</defs>
</svg>
