<svg width="185" height="208" viewBox="0 0 185 208" fill="none" xmlns="http://www.w3.org/2000/svg">
<g opacity="0.2">
<path d="M127.709 64.6743C134.243 51.4736 131.582 35.846 121.801 25.5353L145.64 7.65316L164.268 18.4101L145.925 75.1933L127.709 64.6743Z" fill="#2E376B"/>
<path d="M168.043 15.4072L149.543 4.72472L155.388 0.340332L183.609 16.6366L182.735 23.8914L168.126 15.4553C168.099 15.4387 168.071 15.4227 168.043 15.4072Z" fill="#2E376B"/>
<path d="M168.242 20.7052L182.152 28.737L174.927 88.7101C174.837 89.7176 174.715 90.7246 174.562 91.7298L149.899 77.4884L168.242 20.7052Z" fill="#2E376B"/>
<path fill-rule="evenodd" clip-rule="evenodd" d="M146.12 80.4888L173.623 96.3705C172.532 100.683 170.835 104.918 168.501 108.961C166.781 111.94 164.798 114.672 162.598 117.145L160.947 110.985C159.344 104.999 153.192 101.447 147.207 103.051C141.222 104.655 137.67 110.808 139.274 116.794L142.999 130.698L134.104 146.108C131.457 150.694 128.238 155.875 123.711 160.171C119.194 164.457 113.862 167.548 108.46 169.753C95.1503 175.184 80.0719 176.062 66.2221 172.213C52.3723 168.364 39.9086 159.831 31.309 148.31C29.0849 145.331 29.6968 141.112 32.6758 138.888C35.6548 136.663 39.8727 137.275 42.0968 140.255C48.9126 149.385 58.8497 156.189 69.8266 159.24C80.8035 162.29 92.8253 161.59 103.374 157.286C107.61 155.557 111.409 153.283 114.444 150.403C117.469 147.533 119.887 143.807 122.445 139.376L125.747 133.655C122.481 133.658 119.199 133.336 115.948 132.677L110.184 142.661C108.446 145.672 106.563 148.799 104.45 151.875C103.563 152.32 102.638 152.738 101.679 153.13C95.3999 155.692 88.5367 156.856 81.7428 156.583C82.0478 156.37 82.3493 156.152 82.6472 155.93C89.0702 151.137 93.8325 144.058 98.5252 135.929L103.038 128.111C102.377 127.768 101.721 127.408 101.069 127.032C99.0919 125.891 97.2235 124.633 95.4676 123.272L86.2649 139.214C83.3135 144.327 80.0909 149.7 76.2167 154.748C75.6105 155.085 74.9913 155.405 74.3602 155.708C73.2397 155.485 72.128 155.221 71.0281 154.915C67.7795 154.012 64.6282 152.747 61.6404 151.166C62.1067 150.665 62.5645 150.157 63.0136 149.642C67.3801 144.631 70.952 138.812 74.6058 132.482L85.734 113.204C84.2478 111.145 82.9304 108.983 81.7878 106.741C78.0714 109.863 73.7521 112.205 69.0859 113.616C63.4169 115.329 57.4122 115.614 51.6067 114.443C45.8013 113.273 40.3755 110.684 35.8129 106.908C31.2502 103.132 27.6924 98.2854 25.4565 92.8006C23.2207 87.3157 22.3761 81.3628 22.9982 75.4724C23.6203 69.5819 25.6897 63.9369 29.0219 59.0403C29.8963 57.7554 30.8505 56.5326 31.8773 55.3782C31.4162 52.4432 31.9186 49.3371 33.5195 46.5639C37.2372 40.1236 45.4709 37.917 51.91 41.6353C58.3492 45.3536 60.5554 53.5887 56.8377 60.029C53.5259 65.7663 46.63 68.1437 40.6116 65.9655C40.4545 66.1796 40.301 66.3967 40.1513 66.6167C38.0687 69.6771 36.7753 73.2052 36.3865 76.8868C35.9977 80.5683 36.5256 84.2889 37.923 87.7169C39.3204 91.1449 41.544 94.174 44.3957 96.5341C47.2473 98.8942 50.6385 100.512 54.2669 101.244C57.8952 101.975 61.6482 101.797 65.1913 100.726C68.7344 99.6555 71.9576 97.7245 74.5737 95.1056C75.4749 94.2034 76.2944 93.2292 77.0252 92.1948C76.2483 87.4311 76.1642 82.5409 76.8161 77.685C77.6403 78.2617 78.4964 78.8075 79.3838 79.32C95.28 88.4992 115.432 83.629 125.465 68.5613L146.046 80.4457C146.07 80.4605 146.095 80.4749 146.12 80.4888ZM49.065 55.5406C47.8258 57.6873 45.0812 58.4229 42.9348 57.1835C40.7884 55.944 40.053 53.199 41.2923 51.0522C42.5315 48.9055 45.276 48.1699 47.4224 49.4094C49.5688 50.6488 50.3042 53.3938 49.065 55.5406Z" fill="#2E376B"/>
<path d="M65.0206 176.538C54.8455 173.71 45.3795 168.524 37.4694 161.559C31.8139 159.771 26.4287 157.135 21.5865 153.724C18.5468 151.584 14.3476 152.313 12.2073 155.353C10.0669 158.394 10.7961 162.594 13.8358 164.734C27.3826 174.274 44.2716 178.882 60.7853 177.542C62.6043 177.394 64.4274 177.17 66.2445 176.866C65.8356 176.76 65.4276 176.651 65.0206 176.538Z" fill="#2E376B"/>
<path d="M19.8042 173.603C26.6056 177.14 33.9367 179.64 41.4744 181.016C30.741 185.559 19.169 188.117 7.51104 188.46C3.79501 188.569 0.694096 185.644 0.584989 181.928C0.475873 178.211 3.39987 175.11 7.11591 175.001C11.3727 174.876 15.6195 174.404 19.8042 173.603Z" fill="#2E376B"/>
<path fill-rule="evenodd" clip-rule="evenodd" d="M156.613 112.147C155.65 108.555 151.959 106.424 148.368 107.386C144.777 108.349 142.646 112.04 143.609 115.632L161.943 184.07C161.13 184.885 160.408 185.818 159.805 186.863C156.087 193.303 158.294 201.538 164.733 205.257C171.172 208.975 179.406 206.768 183.123 200.328C186.841 193.888 184.635 185.653 178.195 181.934C177.151 181.331 176.059 180.884 174.947 180.585L156.613 112.147ZM175.35 195.84C174.111 197.986 171.367 198.722 169.22 197.482C167.074 196.243 166.338 193.498 167.578 191.351C168.817 189.204 171.561 188.469 173.708 189.708C175.854 190.948 176.59 193.693 175.35 195.84Z" fill="#2E376B"/>
<path fill-rule="evenodd" clip-rule="evenodd" d="M96.6843 22.3888C81.8137 22.3888 69.7587 34.4459 69.7587 49.319C69.7587 64.1922 81.8137 76.2492 96.6843 76.2492C111.555 76.2492 123.61 64.1922 123.61 49.319C123.61 34.4459 111.555 22.3888 96.6843 22.3888ZM83.2215 49.319C83.2215 41.8824 89.249 35.8539 96.6843 35.8539C100.677 35.8539 104.264 37.5925 106.73 40.3541C105.542 40.0234 104.307 39.8651 103.065 39.888C100.918 39.9276 98.8152 40.5073 96.9512 41.5736C95.0871 42.64 93.5214 44.1586 92.3987 45.9894C91.2759 47.8203 90.6322 49.9045 90.5268 52.0497C90.4214 54.1949 90.8578 56.3322 91.7957 58.2643L97.8511 55.3237C97.4069 54.4085 97.2002 53.3962 97.2501 52.3801C97.3 51.3639 97.6049 50.3767 98.1367 49.5095C98.6685 48.6423 99.4101 47.9229 100.293 47.4178C101.176 46.9128 102.172 46.6382 103.189 46.6194C104.206 46.6006 105.211 46.8383 106.112 47.3105C107.013 47.7827 107.781 48.4742 108.344 49.3212C108.908 50.1682 109.249 51.1435 109.336 52.1571C109.419 53.1125 109.273 54.073 108.912 54.9598C106.779 59.5789 102.106 62.7841 96.6843 62.7841C89.249 62.7841 83.2215 56.7556 83.2215 49.319Z" fill="#2E376B"/>
</g>
</svg>
