<svg width="661" height="185" viewBox="0 0 661 185" fill="none" xmlns="http://www.w3.org/2000/svg">
<path d="M52.2645 0.376742L53.0358 0.119046C54.1111 -0.24017 55.2733 0.342231 55.6317 1.41988L60.8234 17.0299C61.1818 18.1075 60.6007 19.2724 59.5254 19.6316L58.7541 19.8893C46.1841 24.0887 37.7056 35.8784 37.7056 49.158V163.653C37.7056 164.789 36.7868 165.71 35.6534 165.71H19.2358C18.1024 165.71 17.1836 164.789 17.1836 163.653V83.4381L2.13422 83.4381C1.00083 83.4381 0.0820312 82.5172 0.0820312 81.3813V64.9269C0.0820312 63.7909 1.00083 62.8701 2.13423 62.8701L17.1836 62.8701V49.158C17.1836 27.0253 31.3145 7.37573 52.2645 0.376742Z" fill="white"/>
<path d="M76.6974 42.302C77.8308 42.302 78.7496 43.2229 78.7496 44.3588V163.653C78.7496 164.789 77.8308 165.71 76.6974 165.71H60.2798C59.1464 165.71 58.2276 164.789 58.2276 163.653V44.3588C58.2276 43.2229 59.1464 42.302 60.2798 42.302H76.6974Z" fill="white"/>
<path fill-rule="evenodd" clip-rule="evenodd" d="M130.054 83.4381C107.387 83.4381 89.0106 101.855 89.0106 124.574C89.0106 147.293 107.387 165.71 130.054 165.71C152.722 165.71 171.098 147.293 171.098 124.574C171.098 101.855 152.722 83.4381 130.054 83.4381ZM109.533 124.574C109.533 113.215 118.721 104.006 130.054 104.006C141.388 104.006 150.576 113.215 150.576 124.574C150.576 135.934 141.388 145.142 130.054 145.142C118.721 145.142 109.533 135.934 109.533 124.574Z" fill="white"/>
<path fill-rule="evenodd" clip-rule="evenodd" d="M639.683 44.3588V88.9413C633.646 85.4413 626.637 83.4381 619.161 83.4381C596.493 83.4381 578.117 101.855 578.117 124.574C578.117 147.293 596.493 165.71 619.161 165.71C641.829 165.71 660.205 147.293 660.205 124.574V44.3588C660.205 43.2229 659.286 42.302 658.153 42.302H641.735C640.602 42.302 639.683 43.2229 639.683 44.3588ZM598.639 124.574C598.639 135.934 607.827 145.142 619.161 145.142C630.495 145.142 639.683 135.934 639.683 124.574C639.683 113.215 630.495 104.006 619.161 104.006C607.827 104.006 598.639 113.215 598.639 124.574Z" fill="white"/>
<path d="M352.376 101.949C352.376 103.085 351.457 104.006 350.323 104.006H323.303C320.469 104.006 318.172 106.308 318.172 109.148C318.172 111.988 320.469 114.29 323.303 114.29H340.556C354.723 114.29 366.208 125.801 366.208 140C366.208 154.199 354.723 165.71 340.556 165.71H296.282C295.149 165.71 294.23 164.789 294.23 163.653V147.199C294.23 146.063 295.149 145.142 296.282 145.142H340.556C343.389 145.142 345.686 142.84 345.686 140C345.686 137.16 343.389 134.858 340.556 134.858H323.303C309.135 134.858 297.65 123.347 297.65 109.148C297.65 94.9489 309.135 83.4381 323.303 83.4381H350.323C351.457 83.4381 352.376 84.3589 352.376 85.4949V101.949Z" fill="white"/>
<path fill-rule="evenodd" clip-rule="evenodd" d="M401.931 85.3079C380.29 92.0684 368.214 115.132 374.96 136.821C380.712 155.317 398.292 166.841 416.764 165.642C428.195 186.983 458.681 191.916 475.939 172.239L477.361 170.619C478.109 169.765 478.026 168.466 477.174 167.716L464.844 156.852C463.992 156.102 462.696 156.186 461.947 157.039L460.526 158.66C453.924 166.187 442.868 165.426 436.927 158.81C451.693 148.947 458.877 130.179 453.329 112.34C446.584 90.65 423.572 78.5475 401.931 85.3079ZM394.552 130.701C391.179 119.856 397.217 108.324 408.038 104.944C418.858 101.564 430.364 107.615 433.737 118.46C437.109 129.305 431.072 140.837 420.251 144.217C409.431 147.597 397.925 141.546 394.552 130.701Z" fill="white"/>
<path d="M181.359 134.858V85.4949C181.359 84.3589 182.278 83.4381 183.412 83.4381H199.829C200.963 83.4381 201.881 84.3589 201.881 85.4949V134.858C201.881 140.538 206.475 145.142 212.142 145.142C217.809 145.142 222.403 140.538 222.403 134.858V126.631L222.403 126.616V116.347C222.403 115.211 223.322 114.29 224.456 114.29H240.873C242.006 114.29 242.925 115.211 242.925 116.347V134.858C242.925 140.538 247.519 145.142 253.186 145.142C258.853 145.142 263.447 140.538 263.447 134.858V85.4949C263.447 84.3589 264.366 83.4381 265.499 83.4381H281.917C283.05 83.4381 283.969 84.3589 283.969 85.4949V134.858C283.969 151.897 270.187 165.71 253.186 165.71C245.302 165.71 238.11 162.74 232.664 157.854C227.218 162.74 220.026 165.71 212.142 165.71C195.141 165.71 181.359 151.897 181.359 134.858Z" fill="white"/>
<path d="M468.667 85.4949V134.858C468.667 151.897 482.449 165.71 499.45 165.71C516.451 165.71 530.233 151.897 530.233 134.858V85.4949C530.233 84.3589 529.314 83.4381 528.18 83.4381H511.763C510.629 83.4381 509.711 84.3589 509.711 85.4949V134.858C509.711 140.538 505.117 145.142 499.45 145.142C493.783 145.142 489.189 140.538 489.189 134.858V85.4949C489.189 84.3589 488.27 83.4381 487.136 83.4381H470.719C469.585 83.4381 468.667 84.3589 468.667 85.4949Z" fill="white"/>
<path d="M545.187 163.653C545.187 164.789 546.106 165.71 547.239 165.71H563.657C564.79 165.71 565.709 164.789 565.709 163.653V85.4949C565.709 84.359 564.79 83.4381 563.657 83.4381H547.239C546.106 83.4381 545.187 84.3589 545.187 85.4949V163.653Z" fill="white"/>
</svg>
